<?xml version="1.0" standalone="no"?>
<!DOCTYPE svg PUBLIC "-//W3C//DTD SVG 20010904//EN" "http://www.w3.org/TR/2001/REC-SVG-20010904/DTD/svg10.dtd">
<!-- Created using Krita: https://krita.org -->
<svg xmlns="http://www.w3.org/2000/svg" 
    xmlns:xlink="http://www.w3.org/1999/xlink"
    xmlns:krita="http://krita.org/namespaces/svg/krita"
    xmlns:sodipodi="http://sodipodi.sourceforge.net/DTD/sodipodi-0.dtd"
    width="61.92pt"
    height="61.92pt"
    viewBox="0 0 61.92 61.92">
<defs/>
<path id="shape0" transform="matrix(1.60063845856297 0 0 1.60063845856297 8.31721263264415 5.53499980659268)" fill="none" stroke-opacity="0.219607843137255" stroke="#000000" stroke-width="3.8376" stroke-linecap="square" stroke-linejoin="bevel" d="M0 15.7829C0.317878 14.9666 13.5378 0.196852 14.3439 0C15.3306 0.168041 28.7287 13.3206 29.3608 15.0733C28.9064 16.8727 16.9027 28.8105 15.1262 29.3188C13.5767 29.2702 0.421334 16.9427 0 15.7829Z" sodipodi:nodetypes="ccccc"/><path id="shape01" transform="translate(47.2396, 47.2606)" fill="none" stroke-opacity="0.219607843137255" stroke="#000000" stroke-width="6" stroke-linecap="square" stroke-linejoin="bevel" d="M0 15.7829C0.317878 14.9666 13.5378 0.196852 14.3439 0C15.3306 0.168041 28.7287 13.3206 29.3608 15.0733C28.9064 16.8727 16.9027 28.8105 15.1262 29.3188C13.5767 29.2702 0.421334 16.9427 0 15.7829Z" sodipodi:nodetypes="ccccc"/><path id="shape02" transform="translate(-14.6804, 47.2606)" fill="none" stroke-opacity="0.219607843137255" stroke="#000000" stroke-width="6" stroke-linecap="square" stroke-linejoin="bevel" d="M0 15.7829C0.317878 14.9666 13.5378 0.196852 14.3439 0C15.3306 0.168041 28.7287 13.3206 29.3608 15.0733C28.9064 16.8727 16.9027 28.8105 15.1262 29.3188C13.5767 29.2702 0.421334 16.9427 0 15.7829Z" sodipodi:nodetypes="ccccc"/><path id="shape03" transform="translate(47.2396, -14.6594)" fill="none" stroke-opacity="0.219607843137255" stroke="#000000" stroke-width="6" stroke-linecap="square" stroke-linejoin="bevel" d="M0 15.7829C0.317878 14.9666 13.5378 0.196852 14.3439 0C15.3306 0.168041 28.7287 13.3206 29.3608 15.0733C28.9064 16.8727 16.9027 28.8105 15.1262 29.3188C13.5767 29.2702 0.421334 16.9427 0 15.7829Z" sodipodi:nodetypes="ccccc"/><path id="shape04" transform="translate(-14.6804, -14.6594)" fill="none" stroke-opacity="0.219607843137255" stroke="#000000" stroke-width="6" stroke-linecap="square" stroke-linejoin="bevel" d="M0 15.7829C0.317878 14.9666 13.5378 0.196852 14.3439 0C15.3306 0.168041 28.7287 13.3206 29.3608 15.0733C28.9064 16.8727 16.9027 28.8105 15.1262 29.3188C13.5767 29.2702 0.421334 16.9427 0 15.7829Z" sodipodi:nodetypes="ccccc"/>
</svg>
