<?xml version="1.0" standalone="no"?>
<!DOCTYPE svg PUBLIC "-//W3C//DTD SVG 20010904//EN" "http://www.w3.org/TR/2001/REC-SVG-20010904/DTD/svg10.dtd">
<!-- Created using Krita: https://krita.org -->
<svg xmlns="http://www.w3.org/2000/svg" 
    xmlns:xlink="http://www.w3.org/1999/xlink"
    xmlns:krita="http://krita.org/namespaces/svg/krita"
    xmlns:sodipodi="http://sodipodi.sourceforge.net/DTD/sodipodi-0.dtd"
    width="61.92pt"
    height="61.92pt"
    viewBox="0 0 61.92 61.92">
<defs/>
<path id="shape0" transform="translate(18.8801516723329, 20.1579601223174)" fill="none" stroke-opacity="0.219607843137255" stroke="#000000" stroke-width="4.5576" stroke-linecap="square" stroke-linejoin="bevel" d="M0.834674 22.5649C-0.0474478 21.9587 -0.237506 0.948891 0.298526 0.602039C5.9053 -0.0399199 20.2934 -0.387409 22.7855 0.705342C24.281 2.23476 24.3073 22.9025 23.4609 22.7809C19.044 22.7888 17.4712 23.6279 0.834674 22.5649Z" sodipodi:nodetypes="ccccc"/><path id="shape01" transform="matrix(2.1141451636422 0 0 2.10228528779894 5.49849874100574 7.42499996183325)" fill="none" stroke-opacity="0.219607843137255" stroke="#000000" stroke-width="2.3976" stroke-linecap="square" stroke-linejoin="bevel" d="M0.834674 22.5649C-0.0474478 21.9587 -0.237506 0.948891 0.298526 0.602039C5.9053 -0.0399199 20.2934 -0.387409 22.7855 0.705342C24.281 2.23476 24.3073 22.9025 23.4609 22.7809C19.044 22.7888 17.4712 23.6279 0.834674 22.5649Z" sodipodi:nodetypes="ccccc"/>
</svg>
