<?xml version="1.0" standalone="no"?>
<!DOCTYPE svg PUBLIC "-//W3C//DTD SVG 20010904//EN" "http://www.w3.org/TR/2001/REC-SVG-20010904/DTD/svg10.dtd">
<!-- Created using Krita: https://krita.org -->
<svg xmlns="http://www.w3.org/2000/svg" 
    xmlns:xlink="http://www.w3.org/1999/xlink"
    xmlns:krita="http://krita.org/namespaces/svg/krita"
    xmlns:sodipodi="http://sodipodi.sourceforge.net/DTD/sodipodi-0.dtd"
    width="61.92pt"
    height="61.92pt"
    viewBox="0 0 61.92 61.92">
<defs/>
<path id="shape0" transform="translate(-16.6954790359701, 21.5099990347011)" fill="none" stroke-opacity="0.231372549019608" stroke="#000000" stroke-width="5.2776" stroke-linecap="round" stroke-linejoin="round" d="M0.491028 33.5895C-2.57152 33.1368 9.40466 0.18428 16.6663 0C23.4784 0.543865 36.1404 33.0931 32.3308 33.137C29.7924 34.29 13.6409 34.7562 0.491028 33.5895Z" sodipodi:nodetypes="cccc"/><path id="shape01" transform="translate(45.2245209640299, 21.41999903874)" fill="none" stroke-opacity="0.231372549019608" stroke="#000000" stroke-width="5.2776" stroke-linecap="round" stroke-linejoin="round" d="M0.491028 33.5895C-2.57152 33.1368 9.40466 0.18428 16.6663 0C23.4784 0.543865 36.1404 33.0931 32.3308 33.137C29.7924 34.29 13.6409 34.7562 0.491028 33.5895Z" sodipodi:nodetypes="cccc"/><path id="shape02" transform="matrix(-1 0 0 -1 47.9704804116652 40.0713869591673)" fill="none" stroke-opacity="0.231372549019608" stroke="#000000" stroke-width="5.2776" stroke-linecap="round" stroke-linejoin="round" d="M0.491028 33.5895C-2.57152 33.1368 9.40466 0.18428 16.6663 0C23.4784 0.543865 36.1404 33.0931 32.3308 33.137C29.7924 34.29 13.6409 34.7562 0.491028 33.5895Z" sodipodi:nodetypes="cccc"/>
</svg>
